<?xml version="1.0" encoding="UTF-8"?>
<svg id="Lager_1" xmlns="http://www.w3.org/2000/svg" version="1.1" viewBox="0 0 398 398">
  <!-- Generator: Adobe Illustrator 29.3.1, SVG Export Plug-In . SVG Version: 2.1.0 Build 151)  -->
  <defs>
    <style>
      .st0 {
        fill: #fff;
      }
    </style>
  </defs>
  <path class="st0" d="M199.1,271.8c0-21.2,14.1-37.4,37.2-37.4s30.5,10.3,34,24.2l-15.9,1.7c-2.6-8.2-9-13.2-18.1-13.2-13.5,0-21.4,10.9-21.4,24.7s7.9,24.7,21.4,24.7,15.3-4.8,17.9-12.8l16,1.7c-3.5,13.7-15.7,23.8-33.9,23.8s-37.2-16.2-37.2-37.4ZM144.9,235.5h49.4v12.7h-33.6v17h31v12.7h-31v17.7h34.1v12.7h-49.9v-72.7ZM90.1,235.5h15.8v60.1h31.8v12.7h-47.6v-72.7ZM272.7,190.5c0,3.4,2.9,6.1,8.2,6.1s9.5-3.9,9.5-9v-6.9c-.8,1.6-2.5,2.3-5.2,2.8l-4.7.8c-4.6.8-7.8,2.3-7.8,6.1ZM276,207.2c-12.3,0-19.1-7.2-19.1-16.3s7.3-14,19.2-16.1l9.5-1.7c3.3-.5,4.8-1.4,4.8-3.6,0-4.1-2.6-6.9-7.9-6.9s-8.6,2.8-9.1,7.6l-15.2-1.2c1.6-10.5,10.9-17.9,24.6-17.9s23.4,6,23.4,20.4v23.9c0,5.2,1.1,7.7,2.7,10v.8h-15.8c-.6-1.8-1.1-4.3-1.4-6.9-2.5,4.9-7.1,7.9-15.7,7.9ZM234.9,175.3c0-7.7-2.9-11.9-8.7-11.9s-10.4,5-10.4,13.3v29.5h-15.8v-54h15.8v7c3.6-5.2,9.1-8,16.1-8,11.2,0,18.8,7.1,18.8,21.8v33.2h-15.8v-30.9ZM157.3,183c0,7.7,2.8,11.8,8.7,11.8s10.3-4.9,10.3-13.2v-29.5h15.9v54h-15.9v-6.9c-3.5,5.1-9.1,7.9-16.1,7.9-11.1,0-18.8-7.2-18.8-21.8v-33.2h15.9v30.9ZM90.1,133.5h15.8v60.1h31.8v12.7h-47.6v-72.7Z"/>
  <path class="st0" d="M296.7,252l-3.6-12.2v12.2h-3.6v-16.7h5.5l4,13.5,4-13.5h5.5v16.7h-3.6v-12.2l-3.6,12.2h-4.5ZM288.1,235.3v2.9h-4.6v13.8h-3.6v-13.8h-4.6v-2.9h12.8Z"/>
  <path class="st0" d="M321.4,0h-157.2c-35,1.6-66.2,27-74.2,61.1h246.9v246.9c33.9-7.9,59.3-39,61.1-73.7V76.3c-2-40.7-35.9-74.5-76.6-76.3Z"/>
  <path class="st0" d="M76.6,398h157.2c35-1.6,66.2-27,74.2-61.1H61.1V90C27.2,97.9,1.8,129,0,163.7v157.9c2,40.7,35.9,74.5,76.6,76.3Z"/>
</svg>