<svg width="630" height="630" viewBox="0 0 630 630" fill="none" xmlns="http://www.w3.org/2000/svg">
<path d="M227.461 287.789H235.443V334.539H260.376V341H227.461V287.789ZM270.47 324.581C270.47 332.03 273.511 335.527 278.908 335.527C284.99 335.527 288.866 331.194 288.866 323.212V301.472H296.848V341H288.866V334.463C286.282 339.252 281.797 341.76 276.096 341.76C267.962 341.76 262.489 336.743 262.489 325.797V301.472H270.47V324.581ZM330.508 317.815C330.508 310.442 327.467 306.945 322.07 306.945C315.989 306.945 312.112 311.202 312.112 319.259V341H304.13V301.472H312.112V308.009C314.696 303.22 319.181 300.711 324.883 300.711C333.016 300.711 338.489 305.729 338.489 316.675V341H330.508V317.815ZM358.77 341.76C349.876 341.76 344.327 336.591 344.327 330.054C344.327 322.832 349.876 319.792 358.39 318.347L365.536 317.207C368.728 316.675 370.249 316.143 370.249 313.938C370.249 308.997 367.132 306.945 362.267 306.945C357.402 306.945 353.753 309.529 352.993 314.318L345.391 313.634C346.76 305.196 353.677 300.711 362.571 300.711C371.541 300.711 378.23 304.588 378.23 314.85V332.562C378.23 336.895 379.067 338.948 380.055 340.468V341H372.073C371.541 339.556 371.161 337.883 371.009 335.755C368.956 339.328 365.156 341.76 358.77 341.76ZM352.309 329.75C352.309 333.322 355.35 335.983 360.747 335.983C367.36 335.983 370.249 331.878 370.249 326.937V320.324C369.717 321.616 368.348 322.3 365.46 322.832L360.519 323.668C355.806 324.428 352.309 325.797 352.309 329.75ZM227.461 349.789H235.443V396.539H260.376V403H227.461V349.789ZM265.713 349.789H299.92V356.174H273.695V372.746H298.02V379.207H273.695V396.539H300.3V403H265.713V349.789ZM304.264 376.394C304.264 360.811 314.679 349.029 331.022 349.029C343.489 349.029 352.23 356.022 354.967 365.752L346.985 366.588C344.629 359.747 338.776 355.414 331.022 355.414C319.468 355.414 312.246 364.612 312.246 376.394C312.246 388.177 319.468 397.299 331.022 397.299C338.776 397.299 344.553 393.118 346.909 386.352L354.967 387.189C352.154 396.919 343.413 403.76 331.022 403.76C314.679 403.76 304.264 391.902 304.264 376.394Z" fill="white"/>
<path d="M197.451 197.453H389C386.022 147.001 344.166 107 292.968 107H203.214C150.075 107 107 150.076 107 203.21V292.966C107 344.171 147 386.021 197.451 389V197.453Z" fill="white"/>
<path d="M432.553 241V432.549H241C243.979 483 285.835 523 337.034 523H426.79C479.93 523 523 479.925 523 426.792V337.038C523 285.834 482.999 243.985 432.547 241.006L432.553 241Z" fill="white"/>
</svg>
