<svg width="309" height="309" viewBox="0 0 309 309" fill="none" xmlns="http://www.w3.org/2000/svg">
<path d="M64.3096 132.802C64.3096 94.9747 94.9747 64.3096 132.802 64.3096H240.508C278.335 64.3096 309 94.9747 309 132.802V240.508C309 278.335 278.335 309 240.508 309H132.802C94.9747 309 64.3096 278.335 64.3096 240.508V132.802Z" fill="white"/>
<path d="M0 68.4924C0 30.6651 30.6651 0 68.4924 0H176.198C214.025 0 244.69 30.6651 244.69 68.4924V176.198C244.69 214.025 214.025 244.69 176.198 244.69H68.4924C30.6651 244.69 0 214.025 0 176.198V68.4924Z" fill="white"/>
<path d="M64.3096 64.3096H244.69V244.69H64.3096V64.3096Z" fill="black"/>
<path d="M76.6386 117.373H88.066V160.828H111.071V170H76.6386V117.373ZM124.472 153.235C124.472 158.798 126.502 161.805 130.787 161.805C135.599 161.805 138.23 158.272 138.23 152.257V130.906H149.733V170H138.23V165.038C135.674 168.722 131.614 170.752 126.577 170.752C118.533 170.752 112.97 165.564 112.97 154.964V130.906H124.472V153.235ZM180.662 147.671C180.662 142.108 178.557 139.026 174.347 139.026C169.536 139.026 166.829 142.634 166.829 148.649V170H155.402V130.906H166.829V135.943C169.46 132.184 173.445 130.154 178.482 130.154C186.602 130.154 192.09 135.267 192.09 145.942V170H180.662V147.671ZM210.389 170.752C201.517 170.752 196.555 165.564 196.555 158.948C196.555 151.731 201.818 148.799 210.464 147.295L217.305 146.093C219.711 145.717 220.764 145.115 220.764 143.461C220.764 140.529 218.884 138.499 215.05 138.499C211.366 138.499 208.81 140.529 208.434 143.987L197.458 143.085C198.585 135.492 205.351 130.154 215.275 130.154C225.575 130.154 232.191 134.515 232.191 144.89V162.181C232.191 165.94 233.018 167.745 234.146 169.399V170H222.718C222.267 168.722 221.891 166.918 221.741 165.038C219.937 168.572 216.629 170.752 210.389 170.752ZM207.983 158.648C207.983 161.129 210.088 163.083 213.922 163.083C218.508 163.083 220.764 160.227 220.764 156.543V151.581C220.162 152.708 218.959 153.235 217.005 153.611L213.621 154.212C210.313 154.813 207.983 155.866 207.983 158.648ZM76.6386 179.373H88.066V222.828H111.071V232H76.6386V179.373ZM115.498 179.373H151.208V188.546H126.925V200.875H149.329V210.047H126.925V222.828H151.584V232H115.498V179.373ZM154.732 205.687C154.732 190.35 164.957 178.622 181.647 178.622C194.954 178.622 203.75 186.065 206.231 196.139L194.728 197.342C192.849 191.402 188.187 187.794 181.647 187.794C171.873 187.794 166.159 195.688 166.159 205.687C166.159 215.611 171.873 223.58 181.647 223.58C188.112 223.58 192.698 220.121 194.578 214.333L206.156 215.535C203.599 225.459 194.803 232.752 181.647 232.752C164.957 232.752 154.732 221.024 154.732 205.687Z" fill="white"/>
</svg>
